<?xml version="1.0" encoding="utf-8"?><!-- Uploaded to: SVG Repo, www.svgrepo.com, Generator: SVG Repo Mixer Tools -->
<svg fill="#000000" width="800px" height="800px" viewBox="-16.26 0 120 120" xmlns="http://www.w3.org/2000/svg">
  <path id="_0402-chef" data-name="0402-chef" d="M342.475,800.109c-.16-.1-.34-.4-.486-.487-.184-.115-.512-.1-.726-.242-.385-.26-.655-.726-.969-.968-.474-.365-.808-.614-1.211-.968a32.419,32.419,0,0,1-2.909-2.909c-.339-.39-.6-.736-.969-1.211a25.23,25.23,0,0,1-1.939-2.908,30.81,30.81,0,0,1-3.877-12.844,80.449,80.449,0,0,1,1.453-15.268c-.239-.329-.849-.289-1.459-.249s-1.2.079-1.449-.234c-1.2.148-1.55-.549-2.423-.727a.661.661,0,0,0-.485-.727c-.784-2.568.315-5.117.969-7.029.85-.523.961-1.784,1.939-2.18.47-.9,1.6-1.15,2.423-1.7a4.981,4.981,0,0,1,3.15.727c-.027-.861-.895-.88-.725-1.938a8.384,8.384,0,0,1,1.938-3.634c-.163-1.375.436-1.987.485-3.151.664-.871,1.087-1.982,1.7-2.908.868-.6,1.742-1.316,1.211-2.665.749.058.41,1.206,1.454.969.711-.207-.316-.612,0-1.21-.248-.321-.239-.9-.484-1.213a12.293,12.293,0,0,0-.728-2.424,41.583,41.583,0,0,0-1.453-5.09c-.581-3.7-2.163-6.4-2.182-10.661.526-.847,1-1.751,2.666-1.454,1.346,1,1.609,3.076,1.939,5.089a5.209,5.209,0,0,1,.726,2.666c.675.455.468,1.794.97,2.423.98,3.623,2.039,7.17,3.15,10.664,6.856-3.243,15.459-4.737,25.929-4.363a67.628,67.628,0,0,1,14.539,2.665c.875-.175.255-1.846.728-2.423a22.951,22.951,0,0,1,.483-2.424c.306-1.632.637-3.24.969-4.847.439-1.5.722-3.155,1.212-4.6.464-1.476.767-3.112,2.908-2.909,1.818.244,1.552,2.7.968,4.119s-.7,3.335-1.21,4.846c-.217,1.8-.779,3.26-.97,5.089a10.891,10.891,0,0,0-.484,2.666c-.851.765.852,1.174,0,1.939.3.249.543.122.83-.007a1.1,1.1,0,0,1,1.11.007c.937,1.082,1.816,2.222,2.665,3.392a11.839,11.839,0,0,0,1.212,1.939,10.158,10.158,0,0,0,.725,2.18c.067.875-.446,1.167-.484,1.94a9.4,9.4,0,0,1,.484,4.12c.02.335.421.289.823.243a1.687,1.687,0,0,1,.632,0,.631.631,0,0,1,.535.138.662.662,0,0,0,.677.1,30.594,30.594,0,0,1,3.152,2.183,4.587,4.587,0,0,0,.968,1.694,14.935,14.935,0,0,1,.242,3.151c-.285.041-.2.442-.242.727a8.3,8.3,0,0,1-2.908,2.423,78.5,78.5,0,0,1,1.454,17.448c-1,9.013-5.059,14.974-9.935,20.114a34.855,34.855,0,0,1-20.6,9.208q-1.349.049-2.664.048C357.59,806.457,348.943,804.222,342.475,800.109Zm-1.212-54.524a24.308,24.308,0,0,0-.728,2.664,8.532,8.532,0,0,0-.967,2.424c-.567,1.776-1.013,3.672-1.7,5.331-.985,3.621-2.314,6.894-2.908,10.9-.084,2.906-.378,5.6-.243,8.724.508,3.613,1.074,7.167,2.423,9.936.9,1.123,1.445,2.6,2.425,3.634.779,1.452,1.8,2.528,2.422,3.877,1.517.907,2.735,2.114,4.363,2.909a25.774,25.774,0,0,0,2.424,1.212c.751.54,1.893.691,2.665,1.211a55.223,55.223,0,0,0,12.359,2.421h7.027a34.485,34.485,0,0,0,11.147-3.632c1.546-1.361,3.235-2.581,4.846-3.877a35.04,35.04,0,0,0,6.786-9.937c1.821-3.75,2.383-8.762,2.666-14.055a39.261,39.261,0,0,0-2.182-12.6,51.47,51.47,0,0,0-2.182-5.088c-.286-.925-.887-1.537-1.21-2.426-.307-.984-1.18-1.4-1.454-2.422a10.641,10.641,0,0,1-3.15-1.211,14.846,14.846,0,0,1-2.424-6.787c-4-.688-7.708-1.661-12.358-1.7a2.827,2.827,0,0,1-3.15.243,8.259,8.259,0,0,1-3.636,1.939c-1.4.184-1.694-.729-2.665-.969-2.192,1.767-3.03,4.886-7.027,4.845-1.764-.013-1.446-2.107-2.908-2.421.085.328-.2.284-.485.241s-.572-.086-.485.243c-.494.071-.475.655-.969.727-.349.7-1.165.936-1.7,1.453a12.172,12.172,0,0,1-4.119,2.424,2.366,2.366,0,0,1-1.62-.154,2.446,2.446,0,0,0-.83-.237A.77.77,0,0,0,341.263,745.585Zm-11.148,7.025a8.989,8.989,0,0,0-2.422,6.059,3.887,3.887,0,0,0,2.108.244,9.7,9.7,0,0,1,1.284,0,48.711,48.711,0,0,1,1.7-6.3,2.047,2.047,0,0,0-1.2-.393A3.585,3.585,0,0,0,330.115,752.611Zm66.641.243c.319.652.65,1.289.969,1.939s.355,1.582,1.211,1.7c.655-.3.808-.795.727-1.7-.013-.16.011-.324,0-.485a4.908,4.908,0,0,0-2.908-2.18C396.661,752.472,396.465,752.536,396.756,752.854Zm-5.816-8.966a2.7,2.7,0,0,0,1.939-1.211c-.643-.488-.588-1.676-1.453-1.939C391.431,741.954,390.624,742.359,390.94,743.888Zm-46.042-3.15a14.406,14.406,0,0,1-.727,1.7,7.669,7.669,0,0,0,3.393-2.423C346.465,740.042,345.9,740.6,344.9,740.738Zm46.042-.97c-.232,1.006.725.049,0,0,.079-.344.02-.458-.064-.458C390.714,739.309,390.462,739.735,390.94,739.768Zm-37.8,53.069c-1.173-1.25-2.832-2.011-2.908-4.361-.176-.661.482-.488.485-.97,1.789-.012,1.946,1.609,3.15,2.182,1.179.437,1.948,1.285,3.393,1.455,2.083,1.147,5.2,1.264,8,1.695h5.815a24.121,24.121,0,0,0,2.666-.726,10.163,10.163,0,0,0,3.393-2.424c1.066-.6,1.927-2.53,3.392-1.938.362,3.35-1.625,4.352-2.908,6.057-1.247.289-1.639,1.432-3.15,1.454-.75.7-2.385.523-3.393.971q-1.036.033-2.039.033C362.588,796.265,357.189,795.225,353.137,792.837Zm7.269-12.116a1.836,1.836,0,0,1,.486-1.7c.2-.046.241-.243.484-.242.553.02,1.136.011,1.718,0,2.2-.031,4.409-.064,5.068,1.452.21.938-.593.862-.728,1.454-.082.23-.4.224-.721.217-.34-.007-.68-.013-.732.266-.389,0-.781.008-1.167.008C362.858,782.182,361.036,782.048,360.406,780.721Zm-8-3.15c-.056-.24-.353-.238-.651-.235a2.812,2.812,0,0,1-.319-.009c-1.467-.781-3.015-2.267-2.181-4.6.551-.571.724.3.968.727.428.218.708.586,1.212.728.282-.041.43.053.485.242h2.422c2.094-.9,3.143-2.836,5.089-3.878h2.182c.577.556,1.38.882,1.454,1.939-.25,2.336-2.009,3.163-4.119,3.635a12.971,12.971,0,0,1-3.877,1.454Zm16.478-.244c-.055-.239-.351-.236-.648-.232a2.848,2.848,0,0,1-.321-.009c-.648-.563-1.59-.833-2.181-1.454-.867-1.863-.374-4.343,1.454-4.846a2.214,2.214,0,0,1,2.182,1.453,1.184,1.184,0,0,1,1.21.484c.432.135,1.007.125,1.212.485a8.566,8.566,0,0,1,2.424.242c2.437-.226,4.213-1.118,5.089-2.908.215.109.432.213.484.486.644.988-.065,1.935-.484,2.665a7.9,7.9,0,0,1-1.7,1.938.426.426,0,0,1-.238-.005c-.107-.018-.213-.036-.247.005a3.581,3.581,0,0,1-.485.485.541.541,0,0,1-.229-.007c-.112-.016-.225-.032-.257.007-.485.593-1.3.474-2.666.727a17.625,17.625,0,0,1-3.582.55A7.77,7.77,0,0,1,368.888,777.327Zm-6.059-6.784c-1.67-1.077-3.647-1.846-4.361-3.878.126-2.618,1.424-4.068,1.938-6.3.72-1.947,1.117-4.216,1.939-6.059a1.144,1.144,0,0,0,.243-.727h.484c1.187.083,1.073,2.009.727,2.908a8.463,8.463,0,0,1-.727,3.394c-.3,2.364-1.42,3.911-1.939,6.06.56.974,1.969,1.1,2.908,1.695,1.848-.152,3.342.049,3.634,1.453.011,1.36-1.138,1.72-2.447,1.72A14.138,14.138,0,0,1,362.83,770.543Zm11.147-13.085a2.984,2.984,0,0,1,2.423-.243c1.589,1.487,1.4,6.413-1.211,6.544C372.525,763.458,372.647,759.134,373.977,757.458Zm-23.99,5.574c-1.55-2.035-.448-7.185,2.667-6.058,1.954,1.464,1.609,6.422-1.223,6.422A3.424,3.424,0,0,1,349.987,763.032Zm-3.634-8.482c-.859-3.26,2.959-3.783,5.331-4.6a6.893,6.893,0,0,0,1.63-.139,6.266,6.266,0,0,1,2.005-.1c.6.447,1.75.351,1.939,1.212.062,1.192-1.423.839-1.939,1.454-1.689-.074-2.825.407-4.362.484a22.061,22.061,0,0,1-2.423.97c-.692.192-1.065.872-1.672.872A1.056,1.056,0,0,1,346.352,754.55Zm30.775-1.94a11.138,11.138,0,0,0-1.953,0c-1.622.092-3.244.183-3.379-1.212-.1-2.117,2.641-1.4,4.119-1.94a2.66,2.66,0,0,0,1.7.245,7.86,7.86,0,0,1,.965,0c.939.6,2.349.721,2.909,1.7.982.521,1.292,2.275.242,2.907C379.859,754.08,378.91,752.927,377.128,752.611Zm-31.5-37.561c-.59-1.914-2.248-2.76-2.182-5.33.4-.406.634-.982,1.454-.971,1.409-.116,1.69.895,2.181,1.7.478.733.977,1.445,1.454,2.181.71,1.711,2.216,2.629,2.423,4.846-.445.363-.6,1.012-1.212,1.211h-.064C347.116,718.687,346.718,716.521,345.625,715.05Zm-18.9,3.151c-.485-.485-1.513-.426-1.939-.969-.662-.227-1.033-.743-1.7-.969-1.007-.851-1.868-1.848-2.908-2.665-.752-1.591-1.706-2.978-1.7-5.333-.005-2.591,1.133-4.035,1.939-5.815,3.319-3.464,7.851-5.72,14.782-5.574-.073-.293.4-.117.485-.243.125-.177-.066-1.137.484-1.211-.061-.87.728-.888.728-1.7a16.733,16.733,0,0,0,2.665-2.665c1.164-.291,1.622-1.286,2.908-1.455.62-.833,2.224-.684,2.907-1.454a66.51,66.51,0,0,1,7.271-1.211,56.36,56.36,0,0,1,17.2,1.695c3.014.828,6.039,1.662,8.24,3.394.412.112.481-.12.549-.351.06-.205.121-.41.419-.377.071-.492.656-.474.727-.968a5.969,5.969,0,0,0,1.939-1.454,26.4,26.4,0,0,1,7.511-2.423h4.362a17.389,17.389,0,0,1,9.208,4.12,11.475,11.475,0,0,1,.485,15.265,26.181,26.181,0,0,1,.727,3.151c-.229,3.408-1.823,5.448-3.393,7.513-.751.057-.941.674-1.454.969-.391.336-1.249.2-1.453.726a6.7,6.7,0,0,0-1.336.008,7.13,7.13,0,0,1-1.571-.008,3.937,3.937,0,0,1-1.939-.726c-.358-.312-.266-.572-.727-.969,1.05-1.7,4.264-1.229,5.574-2.668,1.308-1.356,2.714-2.618,2.666-5.33a2.672,2.672,0,0,0-1.571-.266c-.847.005-1.7.01-1.822-.7-.63-1.134.557-2.277,1.212-2.908.429-1.1,1.374-1.694,1.939-2.666a13.047,13.047,0,0,1,.726-2.181V697.12c-.89-3.231-3.538-4.7-6.785-5.576h-5.332a25.963,25.963,0,0,0-8.724,2.665c.062,1.436.134,2.879-.969,3.152-1.4.183-1.325-1.1-2.181-1.454-.359-.853-1.377-1.048-1.938-1.7a41.342,41.342,0,0,0-7.271-1.21,72.28,72.28,0,0,0-14.3-.969,32.092,32.092,0,0,0-8.481,1.7,24.227,24.227,0,0,0-5.331,3.635c-.217,1.185,1.284.653.967,1.939-.723,0-.823.629-1.452.727-.426.22-1.21.083-1.455.484-1.345.027-2.23.516-3.635.484a29.441,29.441,0,0,0-6.543,1.7,10.742,10.742,0,0,0-4.118,3.393,6.2,6.2,0,0,1-.484,1.939c-.177.742.418.713.241,1.455.378,1.723,1.6,2.6,2.424,3.877a.648.648,0,0,1,.726.362.653.653,0,0,0,.728.364c.086.642,1.235.22,1.454.727.571-.316,1.674-.1,2.181-.484.445.066.535-.221.626-.508.1-.326.205-.653.827-.46.8.825.2,2.227,0,3.392-.831,1.052-2.258,1.507-4.142,1.507Q327.345,718.255,326.724,718.2Zm48.948-3.393c-.415-3.25,1.167-6.362,2.182-8.967.059-.263.482-.163.484-.482.281-.041.432.053.483.241,1.046-.043.837,2.077.486,2.665a8.288,8.288,0,0,1-.727,2.666c-.452,1.765-.552,3.88-2.769,3.88Zm-14.054-5.816a19.7,19.7,0,0,1-.969-4.362c-.031-.433.3-.511.243-.968h1.453c.743,1.115,1.045,2.67,1.7,3.875.05,1.446,1.125,3.481,0,4.6a2.98,2.98,0,0,1-.442.035C361.878,712.178,362,710.333,361.618,708.992Z" transform="translate(-318.485 -686.456)"/>
</svg>