<?xml version="1.0" ?>
<!-- Uploaded to: SVG Repo, www.svgrepo.com, Generator: SVG Repo Mixer Tools -->
<svg width="800px" height="800px" viewBox="0 0 32 32" version="1.1" xml:space="preserve" xmlns="http://www.w3.org/2000/svg" xmlns:xlink="http://www.w3.org/1999/xlink">
<style type="text/css">
	.st0{stroke:#231F20;stroke-width:2;stroke-linecap:round;stroke-linejoin:round;stroke-miterlimit:10;}
</style>
<g id="Musik_icon">
<g>
<path d="M20,14h-8c-3.86,0-7,3.14-7,7v9c0,0.55,0.45,1,1,1h3h14h3c0.55,0,1-0.45,1-1v-9C27,17.14,23.86,14,20,14z M20,24    c0,0.13-0.03,0.26-0.08,0.38s-0.12,0.23-0.21,0.33c-0.1,0.09-0.21,0.16-0.33,0.21S19.13,25,19,25s-0.26-0.03-0.38-0.08    c-0.13-0.05-0.23-0.12-0.33-0.21c-0.09-0.1-0.16-0.21-0.22-0.33C18.02,24.26,18,24.13,18,24c0-0.26,0.11-0.52,0.29-0.71    c0.05-0.04,0.1-0.08,0.15-0.12c0.06-0.04,0.12-0.07,0.18-0.09c0.06-0.03,0.12-0.05,0.18-0.06c0.33-0.07,0.68,0.04,0.91,0.27    c0.09,0.1,0.16,0.2,0.21,0.33C19.97,23.74,20,23.87,20,24z M14,24c0,0.13-0.03,0.26-0.08,0.38s-0.12,0.23-0.21,0.33    c-0.1,0.09-0.21,0.16-0.33,0.21S13.13,25,13,25c-0.27,0-0.52-0.1-0.71-0.29c-0.09-0.1-0.17-0.21-0.22-0.33S12,24.13,12,24    c0-0.26,0.11-0.52,0.29-0.71c0.1-0.09,0.2-0.16,0.33-0.21c0.36-0.15,0.81-0.07,1.09,0.21C13.89,23.48,14,23.74,14,24z M13,20v-4h6    v4H13z M7,21c0-2.42,1.72-4.44,4-4.9v4c-1.16,0.31-2.05,1.3-2.21,2.54L8.11,29H7V21z M25,29h-1.11l-0.68-6.37    c-0.16-1.24-1.05-2.22-2.21-2.53v-4c2.28,0.46,4,2.48,4,4.9V29z"/>
<path d="M11,3v4v1c0,2.76,2.24,5,5,5s5-2.24,5-5V7V3c0.55,0,1-0.45,1-1s-0.45-1-1-1h-1h-8h-1c-0.55,0-1,0.45-1,1S10.45,3,11,3z     M16,11c-1.65,0-3-1.35-3-3h6C19,9.65,17.65,11,16,11z"/>
</g>
</g>
</svg>